<svg xmlns="http://www.w3.org/2000/svg" viewBox="0 0 512.001 512.001" width="512" height="512"><path d="M463.996 126.864L340.192 3.06a10.45 10.45 0 0 0-7.39-3.06H95.727C67.724 0 44.944 22.782 44.944 50.784v410.434c0 28 22.78 50.783 50.783 50.783h320.547c28.002 0 50.783-22.78 50.783-50.782V134.253c0-2.77-1.102-5.43-3.06-7.39zM343.256 35.68l88.126 88.125H373.14c-7.984 0-15.49-3.11-21.134-8.753-5.643-5.643-8.752-13.148-8.75-21.13V35.678zm102.902 425.537c0 16.48-13.406 29.885-29.884 29.885H95.726c-16.48 0-29.885-13.406-29.885-29.885V50.784c.002-16.48 13.408-29.886 29.886-29.886h226.63v73.02c0 13.566 5.28 26.32 14.872 35.91 9.592 9.592 22.345 14.874 35.91 14.874h73.02v316.515z" fill="#ffc900"/><path d="M275.092 351.492h-4.678c-5.77 0-10.45 4.678-10.45 10.45s4.68 10.448 10.45 10.448h4.678c5.77 0 10.45-4.678 10.45-10.45s-4.68-10.448-10.45-10.448zm-38.482 0H135.118c-5.77 0-10.45 4.678-10.45 10.45s4.68 10.448 10.45 10.448H236.61c5.77 0 10.45-4.678 10.45-10.45s-4.68-10.448-10.45-10.448zm140.272-47.745H135.12c-5.77 0-10.45 4.678-10.45 10.45 0 5.77 4.68 10.448 10.45 10.448h241.76c5.77 0 10.45-4.678 10.45-10.45 0-5.77-4.68-10.448-10.45-10.448zm0-47.747H135.12c-5.77 0-10.45 4.678-10.45 10.45 0 5.77 4.68 10.448 10.45 10.448h241.76c5.77 0 10.45-4.678 10.45-10.45 0-5.77-4.68-10.448-10.45-10.448zm0-47.745H135.12c-5.77 0-10.45 4.678-10.45 10.45 0 5.77 4.68 10.448 10.45 10.448h241.76c5.77 0 10.45-4.678 10.45-10.45s-4.68-10.448-10.45-10.448z" fill="#ffc900"/></svg>